<svg width="14" height="14" viewBox="0 0 14 14" fill="none" xmlns="http://www.w3.org/2000/svg">
<g clip-path="url(#clip0_38_433)">
<path d="M12.6304 11.2609H1.3696C0.61439 11.2609 3.05176e-05 11.8752 3.05176e-05 12.6304V13.5435C3.05176e-05 13.7957 0.204534 14 0.456562 14H13.5435C13.7955 14 14 13.7957 14 13.5435V12.6304C14 11.8752 13.3856 11.2609 12.6304 11.2609Z" fill="#4A4A4A"/>
<path d="M13.7197 2.77456L7.17626 0.0354237C7.06333 -0.0118537 6.9367 -0.0118537 6.82377 0.0354237L0.280334 2.77456C0.110639 2.8456 6.10352e-05 3.01174 6.10352e-05 3.1957V5.02177C6.10352e-05 5.27397 0.204565 5.47831 0.456592 5.47831H13.5435C13.7955 5.47831 14 5.27397 14 5.02177V3.1957C14 3.01174 13.8894 2.8456 13.7197 2.77456ZM7.00003 3.50001C6.74792 3.50001 6.5435 3.29562 6.5435 3.04348C6.5435 2.79135 6.74789 2.58698 7.00003 2.58698C7.25217 2.58698 7.45656 2.79137 7.45656 3.04351C7.45656 3.29565 7.25217 3.50001 7.00003 3.50001Z" fill="#4A4A4A"/>
<path d="M12.9347 6.39127H10.1956V10.3478H12.9347V6.39127Z" fill="#4A4A4A"/>
<path d="M8.36951 6.39127H5.6304V10.3478H8.36951V6.39127Z" fill="#4A4A4A"/>
<path d="M3.80432 6.39127H1.06522V10.3478H3.80432V6.39127Z" fill="#4A4A4A"/>
</g>
<defs>
<clipPath id="clip0_38_433">
<rect width="14" height="14" fill="white"/>
</clipPath>
</defs>
</svg>
