<svg width="14" height="14" viewBox="0 0 12 12" fill="none" xmlns="http://www.w3.org/2000/svg">
<path d="M9.75 0H2.25C1.00708 0 0 1.00708 0 2.25V9.75C0 10.9929 1.00708 12 2.25 12H9.75C10.9929 12 12 10.9929 12 9.75V2.25C12 1.00708 10.9929 0 9.75 0ZM8.66769 8.028L8.02708 8.66815C7.90985 8.78585 7.71785 8.78585 7.60062 8.66815L6 7.06754L4.39985 8.66769C4.28215 8.78538 4.09062 8.78538 3.97292 8.66677L3.33231 8.028C3.21554 7.90985 3.21554 7.71923 3.33231 7.60062L4.93292 6.00046L3.33277 4.40031C3.21554 4.28215 3.21554 4.09015 3.33277 3.97338L3.97338 3.33277C4.09108 3.21415 4.28308 3.21415 4.40031 3.33277L6 4.93338L7.60062 3.33277C7.71831 3.21415 7.91031 3.21415 8.02708 3.33277L8.66769 3.97246C8.78492 4.09015 8.78492 4.28215 8.66815 4.40031L7.06754 6.00046L8.66815 7.60062C8.78446 7.71923 8.78446 7.90985 8.66769 8.028Z" fill="#FF5454"/>
</svg>
