<svg width="14" height="14" viewBox="0 0 14 14" fill="none" xmlns="http://www.w3.org/2000/svg">
<path d="M7 1.16667C10.2165 1.16667 12.8333 3.7835 12.8333 7C12.8333 10.2165 10.2165 12.8333 7 12.8333C3.7835 12.8333 1.16667 10.2165 1.16667 7C1.16667 3.7835 3.7835 1.16667 7 1.16667ZM7 0C3.13425 0 0 3.13425 0 7C0 10.8657 3.13425 14 7 14C10.8657 14 14 10.8657 14 7C14 3.13425 10.8657 0 7 0ZM7 1.75C4.10025 1.75 1.75 4.10025 1.75 7C1.75 9.89975 4.10025 12.25 7 12.25C9.89975 12.25 12.25 9.89975 12.25 7C12.25 4.10025 9.89975 1.75 7 1.75ZM7.58333 9.88575V10.5H7V9.91783C6.39625 9.90733 5.7715 9.76325 5.25 9.49375L5.51542 8.53475C6.07308 8.75117 6.81567 8.981 7.39667 8.84975C8.06692 8.69808 8.20458 8.00858 7.46317 7.67667C6.92008 7.4235 5.25933 7.20708 5.25933 5.78492C5.25933 4.98983 5.86542 4.27817 7 4.12242V3.5H7.58333V4.09383C8.00625 4.10492 8.47875 4.17842 9.00783 4.33883L8.79667 5.30017C8.34867 5.14267 7.854 4.99975 7.37217 5.02892C6.50358 5.07967 6.42717 5.83158 7.03325 6.14658C8.03133 6.61558 9.33333 6.96383 9.33333 8.21508C9.3345 9.21725 8.54933 9.75042 7.58333 9.88575Z" fill="#FFC700"/>
</svg>
