<svg width="16" height="16" viewBox="0 0 14 14" fill="none" xmlns="http://www.w3.org/2000/svg">
<path d="M7 9.91666C6.85108 9.91591 6.7042 9.88202 6.57 9.81745C6.43581 9.75287 6.31767 9.65924 6.22417 9.54333L3.76833 6.56833C3.62483 6.38923 3.53453 6.17342 3.50771 5.94549C3.4809 5.71756 3.51865 5.48668 3.61667 5.27916C3.69616 5.09881 3.82589 4.94516 3.99036 4.83654C4.15483 4.72793 4.34709 4.66896 4.54417 4.66666H9.45583C9.65291 4.66896 9.84517 4.72793 10.0096 4.83654C10.1741 4.94516 10.3038 5.09881 10.3833 5.27916C10.4814 5.48668 10.5191 5.71756 10.4923 5.94549C10.4655 6.17342 10.3752 6.38923 10.2317 6.56833L7.77583 9.54333C7.68233 9.65924 7.56419 9.75287 7.43 9.81745C7.2958 9.88202 7.14892 9.91591 7 9.91666Z" fill="#4A4A4A"/>
</svg>
