<svg width="24" height="24" viewBox="0 0 24 24" fill="none" xmlns="http://www.w3.org/2000/svg">
<path d="M22.6436 3.16858H1.35644C0.608566 3.16858 0 3.77715 0 4.52502V6.49149C0 7.23945 0.608566 7.84801 1.35644 7.84801H22.6436C23.3914 7.84801 24 7.23945 24 6.49149V4.52502C24 3.77715 23.3914 3.16858 22.6436 3.16858Z" fill="#297B71"/>
<path d="M22.6436 9.66031H1.35644C0.608566 9.66031 0 10.2689 0 11.0167V12.9833C0 13.7312 0.608566 14.3397 1.35644 14.3397H22.6436C23.3914 14.3397 24 13.7312 24 12.9833V11.0167C24 10.2689 23.3914 9.66031 22.6436 9.66031Z" fill="#297B71"/>
<path d="M22.6436 16.152H1.35644C0.608566 16.152 0 16.7605 0 17.5085V19.475C0 20.2229 0.608566 20.8314 1.35644 20.8314H22.6436C23.3914 20.8314 24 20.2229 24 19.475V17.5085C24 16.7605 23.3914 16.152 22.6436 16.152Z" fill="#297B71"/>
</svg>
