<svg width="14" height="14" viewBox="0 0 14 14" fill="none" xmlns="http://www.w3.org/2000/svg">
<path fill-rule="evenodd" clip-rule="evenodd" d="M13.1765 4.94116H9.88235V1.64705C9.88235 1.19163 9.51423 0.823517 9.05882 0.823517H5.7647C5.30929 0.823517 4.94118 1.19163 4.94118 1.64705V4.94116H1.64706C1.19165 4.94116 0.823528 5.30928 0.823528 5.76469V9.05881C0.823528 9.51422 1.19165 9.88234 1.64706 9.88234H4.94118V13.1765C4.94118 13.6319 5.30929 14 5.7647 14H9.05882C9.51423 14 9.88235 13.6319 9.88235 13.1765V9.88234H13.1765C13.6319 9.88234 14 9.51422 14 9.05881V5.76469C14 5.30928 13.6319 4.94116 13.1765 4.94116Z" fill="#4A4A4A"/>
</svg>
