<svg width="18" height="18" viewBox="0 0 18 18" fill="none" xmlns="http://www.w3.org/2000/svg">
<path d="M16.6498 16.7213C16.112 13.1032 14.7092 9.53782 11.3995 8.39448C12.6858 7.5934 13.5395 6.16799 13.5395 4.53949C13.5395 2.03468 11.5086 0 9.00003 0C6.49146 0 4.46053 2.03092 4.46053 4.53949C4.46053 6.16423 5.31804 7.5934 6.60053 8.39448C3.29087 9.53782 1.88427 13.1032 1.35021 16.7213C1.24866 17.3945 1.77896 18 2.4597 18H15.5328C16.2211 18 16.7514 17.3945 16.6498 16.7213ZM6.17178 4.53949C6.17178 2.97869 7.44299 1.70748 9.00379 1.70748C9.37613 1.70748 9.68077 2.01212 9.68077 2.38445C9.68077 2.75679 9.37613 3.06143 9.00379 3.06143C8.18766 3.06143 7.52573 3.72336 7.52573 4.53949C7.52573 4.91183 7.22109 5.21646 6.84875 5.21646C6.47266 5.21646 6.17178 4.91559 6.17178 4.53949Z" fill="#4A4A4A"/>
</svg>
